<svg width="40" height="40" viewBox="0 0 40 40" fill="none" xmlns="http://www.w3.org/2000/svg">
<path fill-rule="evenodd" clip-rule="evenodd" d="M18.9414 2.15421C19.6393 2.00589 20.3607 2.00589 21.0586 2.15421C21.8474 2.32188 22.5894 2.75064 24.0732 3.60734L32.0557 8.21573C33.5396 9.07249 34.2817 9.50118 34.8213 10.1005C35.2986 10.6306 35.6594 11.2551 35.8799 11.9335C36.1291 12.7005 36.1289 13.5578 36.1289 15.2714V24.4882C36.1289 26.2014 36.129 27.0582 35.8799 27.8251C35.6594 28.5037 35.2987 29.1288 34.8213 29.6591C34.2817 30.2584 33.5396 30.6871 32.0557 31.5439L24.0732 36.1523C22.5894 37.0089 21.8474 37.4377 21.0586 37.6054C20.3607 37.7537 19.6393 37.7537 18.9414 37.6054C18.1526 37.4377 17.4106 37.0089 15.9268 36.1523L7.94434 31.5439C6.46037 30.6871 5.71834 30.2584 5.17871 29.6591C4.7013 29.1288 4.3406 28.5037 4.12012 27.8251C3.87104 27.0582 3.87109 26.2014 3.87109 24.4882V15.2714C3.87109 13.5578 3.8709 12.7005 4.12012 11.9335C4.34061 11.2551 4.70141 10.6306 5.17871 10.1005C5.71834 9.50118 6.46038 9.0725 7.94434 8.21573L15.9268 3.60734C17.4106 2.75064 18.1526 2.32188 18.9414 2.15421ZM17.623 8.28312C17.1481 8.30804 16.6836 8.43242 16.2598 8.64835C15.7807 8.89243 15.3771 9.29665 14.5693 10.1044L10.2246 14.4491C9.41697 15.2568 9.01266 15.6606 8.76855 16.1396C8.55265 16.5633 8.42827 17.0279 8.40332 17.5028C8.37518 18.0397 8.52272 18.5919 8.81836 19.6952L10.4092 25.6308C10.7048 26.7339 10.8528 27.2854 11.1455 27.7362C11.4046 28.1352 11.7446 28.4752 12.1436 28.7343C12.5944 29.0271 13.1459 29.175 14.249 29.4706L20.1846 31.0614C21.288 31.3571 21.84 31.5046 22.377 31.4765C22.8519 31.4515 23.3165 31.3272 23.7402 31.1112C24.2191 30.8672 24.6232 30.4636 25.4307 29.6562L29.7754 25.3105C30.5831 24.5027 30.9874 24.0991 31.2314 23.62C31.4474 23.1962 31.5718 22.7318 31.5967 22.2567C31.6248 21.7198 31.4773 21.1678 31.1816 20.0644L29.5908 14.1298C29.2952 13.0263 29.1473 12.4743 28.8545 12.0234C28.5954 11.6244 28.2554 11.2844 27.8564 11.0253C27.4056 10.7325 26.8541 10.5846 25.751 10.289L19.8154 8.69816C18.712 8.40249 18.16 8.25498 17.623 8.28312Z" fill="url(#paint0_linear_297_80)"/>
<path d="M16.1119 15.8612C16.3975 15.3665 16.5403 15.1192 16.7401 14.9393C16.9168 14.7802 17.1251 14.66 17.3513 14.5865C17.607 14.5034 17.8926 14.5034 18.4637 14.5034L21.536 14.5034C22.1072 14.5034 22.3928 14.5034 22.6485 14.5865C22.8747 14.66 23.0829 14.7802 23.2597 14.9393C23.4595 15.1192 23.6023 15.3665 23.8879 15.8612L25.424 18.5219C25.7096 19.0166 25.8524 19.2639 25.9083 19.5268C25.9577 19.7595 25.9578 20 25.9083 20.2326C25.8524 20.4956 25.7096 20.7429 25.424 21.2376L23.8879 23.8982C23.6023 24.3929 23.4595 24.6402 23.2597 24.8201C23.0829 24.9793 22.8747 25.0995 22.6485 25.173C22.3928 25.2561 22.1072 25.2561 21.536 25.2561L18.4637 25.2561C17.8926 25.2561 17.607 25.2561 17.3513 25.173C17.1251 25.0995 16.9168 24.9793 16.7401 24.8201C16.5403 24.6402 16.3975 24.3929 16.1119 23.8982L14.5758 21.2376C14.2902 20.7429 14.1474 20.4956 14.0915 20.2326C14.042 20 14.042 19.7595 14.0915 19.5268C14.1474 19.2639 14.2902 19.0166 14.5758 18.5219L16.1119 15.8612Z" fill="url(#paint1_linear_297_80)"/>
<defs>
<linearGradient id="paint0_linear_297_80" x1="3.87109" y1="19.8798" x2="36.1289" y2="19.8798" gradientUnits="userSpaceOnUse">
<stop stop-color="#333333"/>
<stop offset="0.0001" stop-color="#333333"/>
<stop offset="1" stop-color="#585858"/>
</linearGradient>
<linearGradient id="paint1_linear_297_80" x1="15.3438" y1="22.5679" x2="24.6559" y2="17.1916" gradientUnits="userSpaceOnUse">
<stop stop-color="#333333"/>
<stop offset="0.0001" stop-color="#333333"/>
<stop offset="1" stop-color="#585858"/>
</linearGradient>
</defs>
</svg>
