<svg width="24" height="24" viewBox="0 0 24 24" fill="none" xmlns="http://www.w3.org/2000/svg">
<g clip-path="url(#clip0_1_2169)">
<path fill-rule="evenodd" clip-rule="evenodd" d="M13.06 7.94011C12.7787 7.65921 12.3975 7.50143 12 7.50143C11.6025 7.50143 11.2212 7.65921 10.94 7.94011L5.28199 13.5961C5.00073 13.8775 4.84277 14.2591 4.84287 14.657C4.84296 15.0548 5.0011 15.4363 5.28249 15.7176C5.56389 15.9989 5.94549 16.1568 6.34335 16.1567C6.7412 16.1566 7.12273 15.9985 7.40399 15.7171L12 11.1211L16.596 15.7171C16.8788 15.9905 17.2576 16.1419 17.6509 16.1386C18.0442 16.1354 18.4205 15.9778 18.6987 15.6998C18.977 15.4219 19.1349 15.0457 19.1385 14.6524C19.1421 14.2591 18.9911 13.8801 18.718 13.5971L13.061 7.93911L13.06 7.94011Z" fill="#090909"/>
</g>
<defs>
<clipPath id="clip0_1_2169">
<rect width="24" height="24" fill="white" transform="matrix(1 0 0 -1 0 24)"/>
</clipPath>
</defs>
</svg>
