<svg width="20" height="20" viewBox="0 0 20 20" fill="none" xmlns="http://www.w3.org/2000/svg">
<g clip-path="url(#clip0_1_2164)">
<path fill-rule="evenodd" clip-rule="evenodd" d="M6.8025 4.375H15.625C16.1223 4.375 16.5992 4.57255 16.9508 4.92418C17.3025 5.27581 17.5 5.75272 17.5 6.25V13.75C17.5 14.2473 17.3025 14.7242 16.9508 15.0758C16.5992 15.4275 16.1223 15.625 15.625 15.625H6.8025C6.52137 15.6249 6.24385 15.5617 5.99047 15.4398C5.7371 15.318 5.51437 15.1408 5.33875 14.9213L2.245 11.055C2.00521 10.7557 1.87456 10.3835 1.87456 10C1.87456 9.61645 2.00521 9.24435 2.245 8.945L5.33875 5.07875C5.5141 4.85954 5.73644 4.68251 5.98935 4.5607C6.24226 4.4389 6.51929 4.37544 6.8 4.375M3.87125 3.9075C4.22288 3.46794 4.66895 3.11317 5.17639 2.86951C5.68382 2.62586 6.2396 2.49956 6.8025 2.5H15.625C16.6196 2.5 17.5734 2.89509 18.2767 3.59835C18.9799 4.30161 19.375 5.25544 19.375 6.25V13.75C19.375 14.7446 18.9799 15.6984 18.2767 16.4017C17.5734 17.1049 16.6196 17.5 15.625 17.5H6.8025C6.24002 17.5001 5.68473 17.3736 5.17776 17.1299C4.67079 16.8863 4.22511 16.5317 3.87375 16.0925L0.781251 12.2263C0.275521 11.5944 -2.28882e-05 10.8093 -2.28882e-05 10C-2.28882e-05 9.19072 0.275521 8.40555 0.781251 7.77375L3.87125 3.9075ZM9.1 6.8375C8.92229 6.6719 8.68723 6.58175 8.44435 6.58603C8.20147 6.59032 7.96974 6.68871 7.79798 6.86047C7.62621 7.03224 7.52782 7.26397 7.52353 7.50685C7.51925 7.74972 7.6094 7.98478 7.775 8.1625L9.6125 10L7.775 11.8375C7.68289 11.9233 7.60902 12.0268 7.55778 12.1418C7.50654 12.2568 7.47898 12.381 7.47676 12.5068C7.47454 12.6327 7.4977 12.7578 7.54485 12.8745C7.592 12.9912 7.66218 13.0973 7.7512 13.1863C7.84023 13.2753 7.94627 13.3455 8.06301 13.3927C8.17974 13.4398 8.30478 13.463 8.43066 13.4607C8.55653 13.4585 8.68068 13.431 8.79568 13.3797C8.91068 13.3285 9.01418 13.2546 9.1 13.1625L10.9375 11.325L12.775 13.1625C12.8608 13.2546 12.9643 13.3285 13.0793 13.3797C13.1943 13.431 13.3185 13.4585 13.4444 13.4607C13.5702 13.463 13.6953 13.4398 13.812 13.3927C13.9287 13.3455 14.0348 13.2753 14.1238 13.1863C14.2128 13.0973 14.283 12.9912 14.3302 12.8745C14.3773 12.7578 14.4005 12.6327 14.3982 12.5068C14.396 12.381 14.3685 12.2568 14.3172 12.1418C14.266 12.0268 14.1921 11.9233 14.1 11.8375L12.2625 10L14.1 8.1625C14.2656 7.98478 14.3558 7.74972 14.3515 7.50685C14.3472 7.26397 14.2488 7.03224 14.077 6.86047C13.9053 6.68871 13.6735 6.59032 13.4307 6.58603C13.1878 6.58175 12.9527 6.6719 12.775 6.8375L10.9375 8.675L9.1 6.8375Z" fill="#090909"/>
</g>
<defs>
<clipPath id="clip0_1_2164">
<rect width="20" height="20" fill="white"/>
</clipPath>
</defs>
</svg>
