<svg width="57" height="57" viewBox="0 0 57 57" fill="none" xmlns="http://www.w3.org/2000/svg">
<path d="M26.6309 2.95932C27.6121 2.75081 28.6262 2.75076 29.6074 2.95932C30.7164 3.19509 31.7596 3.79692 33.8457 5.00131L45.0684 11.4808C47.1545 12.6852 48.1974 13.2877 48.9561 14.1302C49.6274 14.8758 50.1353 15.7542 50.4453 16.7083C50.7956 17.7867 50.7949 18.9917 50.7949 21.4007V34.3587C50.7949 36.7679 50.7957 37.9728 50.4453 39.0511C50.1353 40.0052 49.6273 40.8837 48.9561 41.6292C48.1974 42.4716 47.1544 43.0743 45.0684 44.2787L33.8457 50.7572C31.7594 51.9617 30.7164 52.5644 29.6074 52.8001C28.6262 53.0087 27.612 53.0086 26.6309 52.8001C25.5218 52.5644 24.478 51.9618 22.3916 50.7572L11.1699 44.2787C9.08372 43.0742 8.03993 42.4717 7.28125 41.6292C6.61002 40.8838 6.10299 40.0051 5.79297 39.0511C5.44259 37.9728 5.44238 36.7679 5.44238 34.3587V21.4007C5.44238 18.9916 5.44259 17.7867 5.79297 16.7083C6.10299 15.7542 6.60996 14.8758 7.28125 14.1302C8.03994 13.2876 9.08359 12.6853 11.1699 11.4808L22.3916 5.00131C24.478 3.79674 25.5218 3.19506 26.6309 2.95932ZM24.7773 11.5755C24.1094 11.6105 23.4563 11.7856 22.8604 12.0892C22.1869 12.4324 21.6191 13.0004 20.4834 14.1361L14.375 20.2445C13.2393 21.3801 12.6713 21.9479 12.3281 22.6214C12.0245 23.2174 11.8495 23.8705 11.8145 24.5384C11.7749 25.2933 11.9828 26.0691 12.3984 27.6204L14.6338 35.9652C15.0494 37.5164 15.2573 38.2922 15.6689 38.9261C16.0332 39.487 16.5114 39.9652 17.0723 40.3294C17.7062 40.7411 18.4828 40.9489 20.0342 41.3646L28.3779 43.5999C29.9291 44.0156 30.7052 44.2234 31.46 44.1839C32.1279 44.1489 32.781 43.9739 33.377 43.6703C34.0504 43.3271 34.6185 42.7598 35.7539 41.6244L41.8633 35.515C42.9987 34.3795 43.566 33.8115 43.9092 33.138C44.2128 32.5421 44.3878 31.8889 44.4229 31.221C44.4624 30.4662 44.2545 29.6902 43.8389 28.139L41.6035 19.7953C41.1878 18.2439 40.9801 17.4673 40.5684 16.8333C40.2041 16.2725 39.7259 15.7943 39.165 15.43C38.5311 15.0184 37.7553 14.8105 36.2041 14.3949L27.8594 12.1595C26.308 11.7438 25.5322 11.536 24.7773 11.5755Z" fill="#364F8E"/>
<path d="M22.6524 22.2298C23.054 21.5344 23.2547 21.1866 23.5356 20.9337C23.7841 20.71 24.0769 20.5409 24.3949 20.4376C24.7544 20.3208 25.1559 20.3208 25.959 20.3208L30.2784 20.3208C31.0815 20.3208 31.483 20.3208 31.8425 20.4376C32.1605 20.5409 32.4533 20.71 32.7018 20.9337C32.9827 21.1866 33.1834 21.5344 33.585 22.2298L35.7447 25.9706C36.1462 26.6661 36.347 27.0138 36.4256 27.3835C36.4951 27.7106 36.4951 28.0487 36.4256 28.3758C36.347 28.7455 36.1462 29.0932 35.7447 29.7887L33.585 33.5294C33.1834 34.2249 32.9827 34.5726 32.7018 34.8255C32.4533 35.0493 32.1605 35.2183 31.8425 35.3217C31.483 35.4384 31.0815 35.4384 30.2784 35.4384L25.959 35.4384C25.1559 35.4384 24.7544 35.4384 24.3949 35.3217C24.0769 35.2183 23.7841 35.0493 23.5356 34.8255C23.2547 34.5726 23.054 34.2249 22.6524 33.5294L20.4927 29.7887C20.0912 29.0932 19.8904 28.7455 19.8118 28.3758C19.7423 28.0487 19.7423 27.7106 19.8118 27.3835C19.8904 27.0138 20.0912 26.6661 20.4927 25.9706L22.6524 22.2298Z" fill="#364F8E"/>
</svg>
