<svg width="347" height="466" viewBox="0 0 347 466" fill="none" xmlns="http://www.w3.org/2000/svg">
<g filter="url(#filter0_d_1_3595)">
<rect x="56" y="12" width="275" height="391" rx="8" fill="white"/>
<rect x="57.5" y="13.5" width="272" height="388" rx="6.5" stroke="#F5F5F5" stroke-width="3"/>
<path d="M114.396 38.5078V39.3691H119.387V38.5078H121.123V42.6777H112.674V38.5078H114.396ZM111.224 44.7285V43.3203H122.572V44.7285H117.76V45.5078H121.191V48.6523H114.26V49.3633H121.519V50.6758H112.551V47.4492H119.469V46.7793H112.537V45.5078H116.01V44.7285H111.224ZM114.396 41.3789H119.387V40.627H114.396V41.3789ZM133.587 38.3164V41.2695H135.241V42.6914H133.587V45.5215H131.809V38.3164H133.587ZM124.126 44.8516V39.1504H129.717V40.5449H125.862V43.4434C128.172 43.4297 129.437 43.3545 130.825 43.0605L130.975 44.4551C129.437 44.79 127.974 44.8447 125.165 44.8516H124.126ZM125.219 48.2285C125.212 46.6631 126.88 45.7402 129.485 45.7402C132.042 45.7402 133.675 46.6631 133.682 48.2285C133.675 49.8281 132.042 50.7646 129.485 50.7578C126.88 50.7646 125.212 49.8281 125.219 48.2285ZM126.942 48.2285C126.935 48.9805 127.851 49.377 129.485 49.377C131.064 49.377 131.98 48.9805 131.987 48.2285C131.98 47.4971 131.064 47.1143 129.485 47.1211C127.851 47.1143 126.935 47.4971 126.942 48.2285ZM146.406 39.3965V40.5723C146.399 42.1309 146.399 43.8809 145.9 46.5195L144.15 46.3418C144.628 43.9902 144.649 42.2402 144.656 40.7773H137.327V39.3965H146.406ZM136.152 49.2402V47.8184H140.212V43.5391H141.949V47.8184H147.499V49.2402H136.152ZM159.99 44.0039V45.4258H148.615V44.0039H159.99ZM149.914 48.4609C149.914 46.998 151.555 46.1709 154.275 46.1777C156.976 46.1709 158.596 46.998 158.609 48.4609C158.596 49.9307 156.976 50.7646 154.275 50.7578C151.555 50.7646 149.914 49.9307 149.914 48.4609ZM149.996 43.1289V38.6445H158.623V40.0527H151.732V41.748H158.691V43.1289H149.996ZM151.691 48.4609C151.685 49.1172 152.553 49.4316 154.275 49.4316C155.964 49.4316 156.853 49.1172 156.859 48.4609C156.853 47.832 155.964 47.5039 154.275 47.5039C152.553 47.5039 151.685 47.832 151.691 48.4609ZM168.462 39.4238V40.8047H161.079V39.4238H163.909V38.248H165.645V39.4238H168.462ZM161.68 43.498C161.68 42.1309 162.966 41.208 164.77 41.2012C166.582 41.208 167.833 42.1309 167.833 43.498C167.833 44.8652 166.582 45.7881 164.77 45.7949C162.966 45.7881 161.68 44.8652 161.68 43.498ZM162.569 48.0371V46.6426H170.95V50.7578H169.2V48.0371H162.569ZM163.389 43.498C163.383 44.1338 163.936 44.4619 164.77 44.4551C165.611 44.4619 166.179 44.1338 166.179 43.498C166.179 42.8555 165.611 42.5137 164.77 42.5137C163.936 42.5137 163.383 42.8555 163.389 43.498ZM169.2 46.123V38.3164H170.95V41.543H172.632V42.9648H170.95V46.123H169.2ZM183.865 39.3965V40.6133C183.858 42.1309 183.858 43.833 183.4 46.3418L181.691 46.1914C182.094 43.9082 182.108 42.2197 182.115 40.7773H174.664V39.3965H183.865ZM173.543 49.2402V47.8184H175.962V43.9082H177.699V47.8184H179.066V43.9082H180.789V47.8184H184.89V49.2402H173.543ZM190.007 49.5L189.993 48.0098L193.548 44.7422C194.471 43.8604 194.97 43.3135 194.97 42.5273C194.97 41.6455 194.307 41.0986 193.397 41.1055C192.468 41.0986 191.859 41.6865 191.866 42.6367H189.911C189.904 40.7021 191.34 39.4648 193.425 39.4648C195.544 39.4648 196.952 40.6748 196.952 42.3906C196.952 43.5186 196.405 44.4414 194.368 46.2871L192.864 47.75V47.8047H197.089V49.5H190.007ZM205.888 39.4238V40.8047H198.506V39.4238H201.336V38.248H203.072V39.4238H205.888ZM199.107 43.498C199.107 42.1309 200.392 41.208 202.197 41.2012C204.009 41.208 205.26 42.1309 205.26 43.498C205.26 44.8652 204.009 45.7881 202.197 45.7949C200.392 45.7881 199.107 44.8652 199.107 43.498ZM199.996 48.0371V46.6426H208.377V50.7578H206.627V48.0371H199.996ZM200.816 43.498C200.809 44.1338 201.363 44.4619 202.197 44.4551C203.038 44.4619 203.605 44.1338 203.605 43.498C203.605 42.8555 203.038 42.5137 202.197 42.5137C201.363 42.5137 200.809 42.8555 200.816 43.498ZM206.627 46.123V38.3164H208.377V41.543H210.058V42.9648H208.377V46.123H206.627ZM221.428 38.3164V50.7578H219.665V38.3164H221.428ZM211.01 47.2305C214.223 45.7129 215.638 43.7441 215.918 40.9824H211.68V39.6152H217.696C217.689 43.3887 216.37 46.5264 211.926 48.625L211.01 47.2305ZM238.371 43.9629V45.3711H233.559V46.2939C235.719 46.4512 237.004 47.2305 237.018 48.5156C237.004 49.958 235.37 50.7646 232.684 50.7578C229.956 50.7646 228.322 49.958 228.322 48.5156C228.322 47.2236 229.614 46.4443 231.822 46.2871V45.3711H227.023V43.9629H238.371ZM227.529 42.1309C229.833 41.9258 231.104 41.0781 231.419 40.2168H228.062V38.8496H237.346V40.2168H233.962C234.263 41.085 235.527 41.9258 237.893 42.1309L237.277 43.498C234.926 43.2725 233.347 42.3906 232.684 41.1807C232.027 42.3838 230.462 43.2793 228.103 43.498L227.529 42.1309ZM230.1 48.5156C230.093 49.1172 230.961 49.4453 232.684 49.4453C234.372 49.4453 235.261 49.1172 235.268 48.5156C235.261 47.8867 234.372 47.5859 232.684 47.5723C230.961 47.5859 230.093 47.8867 230.1 48.5156ZM249.358 38.3164V41.8027H251.04V43.2383H249.358V47.2305H247.594V38.3164H249.358ZM239.405 44.6328C242.194 43.8604 243.773 42.418 244.047 40.668H239.952V39.2461H245.967C245.961 42.6094 243.862 44.9609 240.13 46.0137L239.405 44.6328ZM241.264 50.5391V46.3145H243.028V49.1445H249.782V50.5391H241.264ZM262.204 39.3965V40.5723C262.198 42.1309 262.198 43.8809 261.699 46.5195L259.949 46.3418C260.427 43.9902 260.448 42.2402 260.454 40.7773H253.126V39.3965H262.204ZM251.951 49.2402V47.8184H256.011V43.5391H257.747V47.8184H263.298V49.2402H251.951ZM268.994 41.1328C268.987 43.3613 269.938 45.6104 271.934 46.5742L270.881 47.9688C269.548 47.3057 268.646 46.0752 268.133 44.5781C267.586 46.1846 266.629 47.5039 265.221 48.2012L264.141 46.793C266.253 45.8223 267.244 43.4434 267.244 41.1328V39.2734H268.994V41.1328ZM272.481 50.7578V38.3164H274.231V43.1152H276.063V44.5918H274.231V50.7578H272.481Z" fill="#090909"/>
<path d="M134.863 82.6758C141.859 82.6758 146.254 84.8906 146.289 88.7227C146.254 92.502 141.859 94.752 134.863 94.7344C127.92 94.752 123.455 92.502 123.473 88.7227C123.455 84.8906 127.92 82.6758 134.863 82.6758ZM120.52 80.6367V77.0156H131.418V71.4258H135.848V77.0156H149.559V80.6367H120.52ZM123.789 67.6992V64.1836H146.113V66.7852C146.131 69.334 146.131 72.0762 145.199 75.3633L140.805 74.9414C141.525 72.041 141.613 69.8789 141.648 67.6992H123.789ZM127.938 88.7227C127.92 90.4453 130.451 91.3242 134.863 91.3242C139.275 91.3242 141.824 90.4453 141.824 88.7227C141.824 86.9473 139.275 85.998 134.863 86.0156C130.451 85.998 127.92 86.9473 127.938 88.7227ZM181.106 79.2305V82.7461H151.856V79.2305H164.231V77.2617H155.512V63.5156H177.696V66.9609H160.012V68.7539H176.958V71.9883H160.012V73.8164H177.977V77.2617H168.731V79.2305H181.106ZM155.266 89.4609C155.266 86.0859 159.309 84.1875 166.481 84.2227C173.53 84.1875 177.591 86.0859 177.626 89.4609C177.591 92.9062 173.53 94.752 166.481 94.7344C159.309 94.752 155.266 92.9062 155.266 89.4609ZM159.766 89.4609C159.731 90.832 161.876 91.4297 166.481 91.4297C170.981 91.4297 173.108 90.832 173.126 89.4609C173.108 88.125 170.981 87.5098 166.481 87.5273C161.876 87.5098 159.731 88.125 159.766 89.4609ZM200.384 65.2383C200.367 69.0176 204.234 73.1836 211.564 74.0977L209.806 77.7188C204.216 76.9102 200.121 74.3262 198.029 70.8633C195.919 74.3086 191.841 76.9102 186.322 77.7188L184.529 74.0977C191.806 73.1836 195.656 69.0176 195.673 65.2383V63.6914H200.384V65.2383ZM183.404 83.8008V80.1445H212.583V83.8008H200.138V94.7344H195.708V83.8008H183.404ZM233.865 65.5898V69.1406H214.881V65.5898H222.158V62.5664H226.623V65.5898H233.865ZM216.428 76.0664C216.428 72.5508 219.733 70.1777 224.373 70.1602C229.031 70.1777 232.248 72.5508 232.248 76.0664C232.248 79.582 229.031 81.9551 224.373 81.9727C219.733 81.9551 216.428 79.582 216.428 76.0664ZM218.713 87.7383V84.1523H240.264V94.7344H235.764V87.7383H218.713ZM220.822 76.0664C220.805 77.7012 222.229 78.5449 224.373 78.5273C226.535 78.5449 227.994 77.7012 227.994 76.0664C227.994 74.4141 226.535 73.5352 224.373 73.5352C222.229 73.5352 220.805 74.4141 220.822 76.0664ZM235.764 82.8164V62.7422H240.264V71.0391H244.588V74.6953H240.264V82.8164H235.764ZM247.413 91.5L247.378 87.668L256.519 79.2656C258.892 76.998 260.175 75.5918 260.175 73.5703C260.175 71.3027 258.47 69.8965 256.132 69.9141C253.741 69.8965 252.177 71.4082 252.194 73.8516H247.167C247.149 68.877 250.841 65.6953 256.202 65.6953C261.651 65.6953 265.272 68.8066 265.272 73.2188C265.272 76.1191 263.866 78.4922 258.628 83.2383L254.761 87V87.1406H265.624V91.5H247.413Z" fill="#090909"/>
<rect x="98.374" y="116.5" width="81.126" height="57.5996" rx="4" fill="#ECECEC"/>
<rect x="98.374" y="198.1" width="81.126" height="57.5996" rx="4" fill="#ECECEC"/>
<rect x="98.374" y="279.699" width="81.126" height="57.5996" rx="4" fill="#ECECEC"/>
<rect x="191.5" y="116.5" width="4" height="262" rx="2" fill="#ECECEC"/>
<rect x="207.5" y="116.5" width="81.126" height="57.5996" rx="4" fill="#ECECEC"/>
<rect x="207.5" y="222.1" width="81.126" height="57.5996" rx="4" fill="#ECECEC"/>
</g>
<g filter="url(#filter1_d_1_3595)">
<rect x="48" y="20.4424" width="275" height="391" rx="8" fill="white"/>
<rect x="49.5" y="21.9424" width="272" height="388" rx="6.5" stroke="#F5F5F5" stroke-width="3"/>
<path d="M106.396 46.9502V47.8115H111.387V46.9502H113.123V51.1201H104.674V46.9502H106.396ZM103.224 53.1709V51.7627H114.572V53.1709H109.76V53.9502H113.191V57.0947H106.26V57.8057H113.519V59.1182H104.551V55.8916H111.469V55.2217H104.537V53.9502H108.01V53.1709H103.224ZM106.396 49.8213H111.387V49.0693H106.396V49.8213ZM125.587 46.7588V49.7119H127.241V51.1338H125.587V53.9639H123.809V46.7588H125.587ZM116.126 53.2939V47.5928H121.717V48.9873H117.862V51.8857C120.172 51.8721 121.437 51.7969 122.825 51.5029L122.975 52.8975C121.437 53.2324 119.974 53.2871 117.165 53.2939H116.126ZM117.219 56.6709C117.212 55.1055 118.88 54.1826 121.485 54.1826C124.042 54.1826 125.675 55.1055 125.682 56.6709C125.675 58.2705 124.042 59.207 121.485 59.2002C118.88 59.207 117.212 58.2705 117.219 56.6709ZM118.942 56.6709C118.935 57.4229 119.851 57.8193 121.485 57.8193C123.064 57.8193 123.98 57.4229 123.987 56.6709C123.98 55.9395 123.064 55.5566 121.485 55.5635C119.851 55.5566 118.935 55.9395 118.942 56.6709ZM138.406 47.8389V49.0146C138.399 50.5732 138.399 52.3232 137.9 54.9619L136.15 54.7842C136.628 52.4326 136.649 50.6826 136.656 49.2197H129.327V47.8389H138.406ZM128.152 57.6826V56.2607H132.212V51.9814H133.949V56.2607H139.499V57.6826H128.152ZM151.99 52.4463V53.8682H140.615V52.4463H151.99ZM141.914 56.9033C141.914 55.4404 143.555 54.6133 146.275 54.6201C148.976 54.6133 150.596 55.4404 150.609 56.9033C150.596 58.373 148.976 59.207 146.275 59.2002C143.555 59.207 141.914 58.373 141.914 56.9033ZM141.996 51.5713V47.0869H150.623V48.4951H143.732V50.1904H150.691V51.5713H141.996ZM143.691 56.9033C143.685 57.5596 144.553 57.874 146.275 57.874C147.964 57.874 148.853 57.5596 148.859 56.9033C148.853 56.2744 147.964 55.9463 146.275 55.9463C144.553 55.9463 143.685 56.2744 143.691 56.9033ZM160.462 47.8662V49.2471H153.079V47.8662H155.909V46.6904H157.645V47.8662H160.462ZM153.68 51.9404C153.68 50.5732 154.966 49.6504 156.77 49.6436C158.582 49.6504 159.833 50.5732 159.833 51.9404C159.833 53.3076 158.582 54.2305 156.77 54.2373C154.966 54.2305 153.68 53.3076 153.68 51.9404ZM154.569 56.4795V55.085H162.95V59.2002H161.2V56.4795H154.569ZM155.389 51.9404C155.383 52.5762 155.936 52.9043 156.77 52.8975C157.611 52.9043 158.179 52.5762 158.179 51.9404C158.179 51.2979 157.611 50.9561 156.77 50.9561C155.936 50.9561 155.383 51.2979 155.389 51.9404ZM161.2 54.5654V46.7588H162.95V49.9854H164.632V51.4072H162.95V54.5654H161.2ZM175.865 47.8389V49.0557C175.858 50.5732 175.858 52.2754 175.4 54.7842L173.691 54.6338C174.094 52.3506 174.108 50.6621 174.115 49.2197H166.664V47.8389H175.865ZM165.543 57.6826V56.2607H167.962V52.3506H169.699V56.2607H171.066V52.3506H172.789V56.2607H176.89V57.6826H165.543ZM182.007 57.9424L181.993 56.4521L185.548 53.1846C186.471 52.3027 186.97 51.7559 186.97 50.9697C186.97 50.0879 186.307 49.541 185.397 49.5479C184.468 49.541 183.859 50.1289 183.866 51.0791H181.911C181.904 49.1445 183.34 47.9072 185.425 47.9072C187.544 47.9072 188.952 49.1172 188.952 50.833C188.952 51.9609 188.405 52.8838 186.368 54.7295L184.864 56.1924V56.2471H189.089V57.9424H182.007ZM197.888 47.8662V49.2471H190.506V47.8662H193.336V46.6904H195.072V47.8662H197.888ZM191.107 51.9404C191.107 50.5732 192.392 49.6504 194.197 49.6436C196.009 49.6504 197.26 50.5732 197.26 51.9404C197.26 53.3076 196.009 54.2305 194.197 54.2373C192.392 54.2305 191.107 53.3076 191.107 51.9404ZM191.996 56.4795V55.085H200.377V59.2002H198.627V56.4795H191.996ZM192.816 51.9404C192.809 52.5762 193.363 52.9043 194.197 52.8975C195.038 52.9043 195.605 52.5762 195.605 51.9404C195.605 51.2979 195.038 50.9561 194.197 50.9561C193.363 50.9561 192.809 51.2979 192.816 51.9404ZM198.627 54.5654V46.7588H200.377V49.9854H202.058V51.4072H200.377V54.5654H198.627ZM213.428 46.7588V59.2002H211.665V46.7588H213.428ZM203.01 55.6729C206.223 54.1553 207.638 52.1865 207.918 49.4248H203.68V48.0576H209.696C209.689 51.8311 208.37 54.9688 203.926 57.0674L203.01 55.6729ZM230.371 52.4053V53.8135H225.559V54.7363C227.719 54.8936 229.004 55.6729 229.018 56.958C229.004 58.4004 227.37 59.207 224.684 59.2002C221.956 59.207 220.322 58.4004 220.322 56.958C220.322 55.666 221.614 54.8867 223.822 54.7295V53.8135H219.023V52.4053H230.371ZM219.529 50.5732C221.833 50.3682 223.104 49.5205 223.419 48.6592H220.062V47.292H229.346V48.6592H225.962C226.263 49.5273 227.527 50.3682 229.893 50.5732L229.277 51.9404C226.926 51.7148 225.347 50.833 224.684 49.623C224.027 50.8262 222.462 51.7217 220.103 51.9404L219.529 50.5732ZM222.1 56.958C222.093 57.5596 222.961 57.8877 224.684 57.8877C226.372 57.8877 227.261 57.5596 227.268 56.958C227.261 56.3291 226.372 56.0283 224.684 56.0146C222.961 56.0283 222.093 56.3291 222.1 56.958ZM241.358 46.7588V50.2451H243.04V51.6807H241.358V55.6729H239.594V46.7588H241.358ZM231.405 53.0752C234.194 52.3027 235.773 50.8604 236.047 49.1104H231.952V47.6885H237.967C237.961 51.0518 235.862 53.4033 232.13 54.4561L231.405 53.0752ZM233.264 58.9814V54.7568H235.028V57.5869H241.782V58.9814H233.264ZM254.204 47.8389V49.0146C254.198 50.5732 254.198 52.3232 253.699 54.9619L251.949 54.7842C252.427 52.4326 252.448 50.6826 252.454 49.2197H245.126V47.8389H254.204ZM243.951 57.6826V56.2607H248.011V51.9814H249.747V56.2607H255.298V57.6826H243.951ZM260.994 49.5752C260.987 51.8037 261.938 54.0527 263.934 55.0166L262.881 56.4111C261.548 55.748 260.646 54.5176 260.133 53.0205C259.586 54.627 258.629 55.9463 257.221 56.6436L256.141 55.2354C258.253 54.2646 259.244 51.8857 259.244 49.5752V47.7158H260.994V49.5752ZM264.481 59.2002V46.7588H266.231V51.5576H268.063V53.0342H266.231V59.2002H264.481Z" fill="#090909"/>
<path d="M126.863 91.1182C133.859 91.1182 138.254 93.333 138.289 97.165C138.254 100.944 133.859 103.194 126.863 103.177C119.92 103.194 115.455 100.944 115.473 97.165C115.455 93.333 119.92 91.1182 126.863 91.1182ZM112.52 89.0791V85.458H123.418V79.8682H127.848V85.458H141.559V89.0791H112.52ZM115.789 76.1416V72.626H138.113V75.2275C138.131 77.7764 138.131 80.5186 137.199 83.8057L132.805 83.3838C133.525 80.4834 133.613 78.3213 133.648 76.1416H115.789ZM119.938 97.165C119.92 98.8877 122.451 99.7666 126.863 99.7666C131.275 99.7666 133.824 98.8877 133.824 97.165C133.824 95.3896 131.275 94.4404 126.863 94.458C122.451 94.4404 119.92 95.3896 119.938 97.165ZM173.106 87.6729V91.1885H143.856V87.6729H156.231V85.7041H147.512V71.958H169.696V75.4033H152.012V77.1963H168.958V80.4307H152.012V82.2588H169.977V85.7041H160.731V87.6729H173.106ZM147.266 97.9033C147.266 94.5283 151.309 92.6299 158.481 92.665C165.53 92.6299 169.591 94.5283 169.626 97.9033C169.591 101.349 165.53 103.194 158.481 103.177C151.309 103.194 147.266 101.349 147.266 97.9033ZM151.766 97.9033C151.731 99.2744 153.876 99.8721 158.481 99.8721C162.981 99.8721 165.108 99.2744 165.126 97.9033C165.108 96.5674 162.981 95.9521 158.481 95.9697C153.876 95.9521 151.731 96.5674 151.766 97.9033ZM192.384 73.6807C192.367 77.46 196.234 81.626 203.564 82.54L201.806 86.1611C196.216 85.3525 192.121 82.7686 190.029 79.3057C187.919 82.751 183.841 85.3525 178.322 86.1611L176.529 82.54C183.806 81.626 187.656 77.46 187.673 73.6807V72.1338H192.384V73.6807ZM175.404 92.2432V88.5869H204.583V92.2432H192.138V103.177H187.708V92.2432H175.404ZM225.865 74.0322V77.583H206.881V74.0322H214.158V71.0088H218.623V74.0322H225.865ZM208.428 84.5088C208.428 80.9932 211.733 78.6201 216.373 78.6025C221.031 78.6201 224.248 80.9932 224.248 84.5088C224.248 88.0244 221.031 90.3975 216.373 90.415C211.733 90.3975 208.428 88.0244 208.428 84.5088ZM210.713 96.1807V92.5947H232.264V103.177H227.764V96.1807H210.713ZM212.822 84.5088C212.805 86.1436 214.229 86.9873 216.373 86.9697C218.535 86.9873 219.994 86.1436 219.994 84.5088C219.994 82.8564 218.535 81.9775 216.373 81.9775C214.229 81.9775 212.805 82.8564 212.822 84.5088ZM227.764 91.2588V71.1846H232.264V79.4814H236.588V83.1377H232.264V91.2588H227.764ZM239.413 99.9424L239.378 96.1104L248.519 87.708C250.892 85.4404 252.175 84.0342 252.175 82.0127C252.175 79.7451 250.47 78.3389 248.132 78.3564C245.741 78.3389 244.177 79.8506 244.194 82.2939H239.167C239.149 77.3193 242.841 74.1377 248.202 74.1377C253.651 74.1377 257.272 77.249 257.272 81.6611C257.272 84.5615 255.866 86.9346 250.628 91.6807L246.761 95.4424V95.583H257.624V99.9424H239.413Z" fill="#090909"/>
<rect x="90.374" y="124.942" width="81.126" height="57.5996" rx="4" fill="#ECECEC"/>
<rect x="90.374" y="206.542" width="81.126" height="57.5996" rx="4" fill="#ECECEC"/>
<rect x="90.374" y="288.142" width="81.126" height="57.5996" rx="4" fill="#ECECEC"/>
<rect x="183.5" y="124.942" width="4" height="262" rx="2" fill="#ECECEC"/>
<rect x="199.5" y="124.942" width="81.126" height="57.5996" rx="4" fill="#ECECEC"/>
<rect x="199.5" y="230.542" width="81.126" height="57.5996" rx="4" fill="#ECECEC"/>
</g>
<g filter="url(#filter2_d_1_3595)">
<rect x="40" y="28.8848" width="275" height="391" rx="8" fill="white"/>
<rect x="41.5" y="30.3848" width="272" height="388" rx="6.5" stroke="#F5F5F5" stroke-width="3"/>
<path d="M98.3963 55.3926V56.2539H103.387V55.3926H105.123V59.5625H96.6737V55.3926H98.3963ZM95.2245 61.6133V60.2051H106.572V61.6133H101.76V62.3926H105.191V65.5371H98.2596V66.248H105.519V67.5605H96.5506V64.334H103.469V63.6641H96.537V62.3926H100.01V61.6133H95.2245ZM98.3963 58.2637H103.387V57.5117H98.3963V58.2637ZM117.587 55.2012V58.1543H119.241V59.5762H117.587V62.4062H115.809V55.2012H117.587ZM108.126 61.7363V56.0352H113.717V57.4297H109.862V60.3281C112.172 60.3145 113.437 60.2393 114.825 59.9453L114.975 61.3398C113.437 61.6748 111.974 61.7295 109.165 61.7363H108.126ZM109.219 65.1133C109.212 63.5479 110.88 62.625 113.485 62.625C116.042 62.625 117.675 63.5479 117.682 65.1133C117.675 66.7129 116.042 67.6494 113.485 67.6426C110.88 67.6494 109.212 66.7129 109.219 65.1133ZM110.942 65.1133C110.935 65.8652 111.851 66.2617 113.485 66.2617C115.064 66.2617 115.98 65.8652 115.987 65.1133C115.98 64.3818 115.064 63.999 113.485 64.0059C111.851 63.999 110.935 64.3818 110.942 65.1133ZM130.406 56.2812V57.457C130.399 59.0156 130.399 60.7656 129.9 63.4043L128.15 63.2266C128.628 60.875 128.649 59.125 128.656 57.6621H121.327V56.2812H130.406ZM120.152 66.125V64.7031H124.212V60.4238H125.949V64.7031H131.499V66.125H120.152ZM143.99 60.8887V62.3105H132.615V60.8887H143.99ZM133.914 65.3457C133.914 63.8828 135.555 63.0557 138.275 63.0625C140.976 63.0557 142.596 63.8828 142.609 65.3457C142.596 66.8154 140.976 67.6494 138.275 67.6426C135.555 67.6494 133.914 66.8154 133.914 65.3457ZM133.996 60.0137V55.5293H142.623V56.9375H135.732V58.6328H142.691V60.0137H133.996ZM135.691 65.3457C135.685 66.002 136.553 66.3164 138.275 66.3164C139.964 66.3164 140.853 66.002 140.859 65.3457C140.853 64.7168 139.964 64.3887 138.275 64.3887C136.553 64.3887 135.685 64.7168 135.691 65.3457ZM152.462 56.3086V57.6895H145.079V56.3086H147.909V55.1328H149.645V56.3086H152.462ZM145.68 60.3828C145.68 59.0156 146.966 58.0928 148.77 58.0859C150.582 58.0928 151.833 59.0156 151.833 60.3828C151.833 61.75 150.582 62.6729 148.77 62.6797C146.966 62.6729 145.68 61.75 145.68 60.3828ZM146.569 64.9219V63.5273H154.95V67.6426H153.2V64.9219H146.569ZM147.389 60.3828C147.383 61.0186 147.936 61.3467 148.77 61.3398C149.611 61.3467 150.179 61.0186 150.179 60.3828C150.179 59.7402 149.611 59.3984 148.77 59.3984C147.936 59.3984 147.383 59.7402 147.389 60.3828ZM153.2 63.0078V55.2012H154.95V58.4277H156.632V59.8496H154.95V63.0078H153.2ZM167.865 56.2812V57.498C167.858 59.0156 167.858 60.7178 167.4 63.2266L165.691 63.0762C166.094 60.793 166.108 59.1045 166.115 57.6621H158.664V56.2812H167.865ZM157.543 66.125V64.7031H159.962V60.793H161.699V64.7031H163.066V60.793H164.789V64.7031H168.89V66.125H157.543ZM174.007 66.3848L173.993 64.8945L177.548 61.627C178.471 60.7451 178.97 60.1982 178.97 59.4121C178.97 58.5303 178.307 57.9834 177.397 57.9902C176.468 57.9834 175.859 58.5713 175.866 59.5215H173.911C173.904 57.5869 175.34 56.3496 177.425 56.3496C179.544 56.3496 180.952 57.5596 180.952 59.2754C180.952 60.4033 180.405 61.3262 178.368 63.1719L176.864 64.6348V64.6895H181.089V66.3848H174.007ZM189.888 56.3086V57.6895H182.506V56.3086H185.336V55.1328H187.072V56.3086H189.888ZM183.107 60.3828C183.107 59.0156 184.392 58.0928 186.197 58.0859C188.009 58.0928 189.26 59.0156 189.26 60.3828C189.26 61.75 188.009 62.6729 186.197 62.6797C184.392 62.6729 183.107 61.75 183.107 60.3828ZM183.996 64.9219V63.5273H192.377V67.6426H190.627V64.9219H183.996ZM184.816 60.3828C184.809 61.0186 185.363 61.3467 186.197 61.3398C187.038 61.3467 187.605 61.0186 187.605 60.3828C187.605 59.7402 187.038 59.3984 186.197 59.3984C185.363 59.3984 184.809 59.7402 184.816 60.3828ZM190.627 63.0078V55.2012H192.377V58.4277H194.058V59.8496H192.377V63.0078H190.627ZM205.428 55.2012V67.6426H203.665V55.2012H205.428ZM195.01 64.1152C198.223 62.5977 199.638 60.6289 199.918 57.8672H195.68V56.5H201.696C201.689 60.2734 200.37 63.4111 195.926 65.5098L195.01 64.1152ZM222.371 60.8477V62.2559H217.559V63.1787C219.719 63.3359 221.004 64.1152 221.018 65.4004C221.004 66.8428 219.37 67.6494 216.684 67.6426C213.956 67.6494 212.322 66.8428 212.322 65.4004C212.322 64.1084 213.614 63.3291 215.822 63.1719V62.2559H211.023V60.8477H222.371ZM211.529 59.0156C213.833 58.8105 215.104 57.9629 215.419 57.1016H212.062V55.7344H221.346V57.1016H217.962C218.263 57.9697 219.527 58.8105 221.893 59.0156L221.277 60.3828C218.926 60.1572 217.347 59.2754 216.684 58.0654C216.027 59.2686 214.462 60.1641 212.103 60.3828L211.529 59.0156ZM214.1 65.4004C214.093 66.002 214.961 66.3301 216.684 66.3301C218.372 66.3301 219.261 66.002 219.268 65.4004C219.261 64.7715 218.372 64.4707 216.684 64.457C214.961 64.4707 214.093 64.7715 214.1 65.4004ZM233.358 55.2012V58.6875H235.04V60.123H233.358V64.1152H231.594V55.2012H233.358ZM223.405 61.5176C226.194 60.7451 227.773 59.3027 228.047 57.5527H223.952V56.1309H229.967C229.961 59.4941 227.862 61.8457 224.13 62.8984L223.405 61.5176ZM225.264 67.4238V63.1992H227.028V66.0293H233.782V67.4238H225.264ZM246.204 56.2812V57.457C246.198 59.0156 246.198 60.7656 245.699 63.4043L243.949 63.2266C244.427 60.875 244.448 59.125 244.454 57.6621H237.126V56.2812H246.204ZM235.951 66.125V64.7031H240.011V60.4238H241.747V64.7031H247.298V66.125H235.951ZM252.994 58.0176C252.987 60.2461 253.938 62.4951 255.934 63.459L254.881 64.8535C253.548 64.1904 252.646 62.96 252.133 61.4629C251.586 63.0693 250.629 64.3887 249.221 65.0859L248.141 63.6777C250.253 62.707 251.244 60.3281 251.244 58.0176V56.1582H252.994V58.0176ZM256.481 67.6426V55.2012H258.231V60H260.063V61.4766H258.231V67.6426H256.481Z" fill="#090909"/>
<path d="M118.863 99.5605C125.859 99.5605 130.254 101.775 130.289 105.607C130.254 109.387 125.859 111.637 118.863 111.619C111.92 111.637 107.455 109.387 107.473 105.607C107.455 101.775 111.92 99.5605 118.863 99.5605ZM104.52 97.5215V93.9004H115.418V88.3105H119.848V93.9004H133.559V97.5215H104.52ZM107.789 84.584V81.0684H130.113V83.6699C130.131 86.2188 130.131 88.9609 129.199 92.248L124.805 91.8262C125.525 88.9258 125.613 86.7637 125.648 84.584H107.789ZM111.938 105.607C111.92 107.33 114.451 108.209 118.863 108.209C123.275 108.209 125.824 107.33 125.824 105.607C125.824 103.832 123.275 102.883 118.863 102.9C114.451 102.883 111.92 103.832 111.938 105.607ZM165.106 96.1152V99.6309H135.856V96.1152H148.231V94.1465H139.512V80.4004H161.696V83.8457H144.012V85.6387H160.958V88.873H144.012V90.7012H161.977V94.1465H152.731V96.1152H165.106ZM139.266 106.346C139.266 102.971 143.309 101.072 150.481 101.107C157.53 101.072 161.591 102.971 161.626 106.346C161.591 109.791 157.53 111.637 150.481 111.619C143.309 111.637 139.266 109.791 139.266 106.346ZM143.766 106.346C143.731 107.717 145.876 108.314 150.481 108.314C154.981 108.314 157.108 107.717 157.126 106.346C157.108 105.01 154.981 104.395 150.481 104.412C145.876 104.395 143.731 105.01 143.766 106.346ZM184.384 82.123C184.367 85.9023 188.234 90.0684 195.564 90.9824L193.806 94.6035C188.216 93.7949 184.121 91.2109 182.029 87.748C179.919 91.1934 175.841 93.7949 170.322 94.6035L168.529 90.9824C175.806 90.0684 179.656 85.9023 179.673 82.123V80.5762H184.384V82.123ZM167.404 100.686V97.0293H196.583V100.686H184.138V111.619H179.708V100.686H167.404ZM217.865 82.4746V86.0254H198.881V82.4746H206.158V79.4512H210.623V82.4746H217.865ZM200.428 92.9512C200.428 89.4355 203.733 87.0625 208.373 87.0449C213.031 87.0625 216.248 89.4355 216.248 92.9512C216.248 96.4668 213.031 98.8398 208.373 98.8574C203.733 98.8398 200.428 96.4668 200.428 92.9512ZM202.713 104.623V101.037H224.264V111.619H219.764V104.623H202.713ZM204.822 92.9512C204.805 94.5859 206.229 95.4297 208.373 95.4121C210.535 95.4297 211.994 94.5859 211.994 92.9512C211.994 91.2988 210.535 90.4199 208.373 90.4199C206.229 90.4199 204.805 91.2988 204.822 92.9512ZM219.764 99.7012V79.627H224.264V87.9238H228.588V91.5801H224.264V99.7012H219.764ZM231.413 108.385L231.378 104.553L240.519 96.1504C242.892 93.8828 244.175 92.4766 244.175 90.4551C244.175 88.1875 242.47 86.7812 240.132 86.7988C237.741 86.7812 236.177 88.293 236.194 90.7363H231.167C231.149 85.7617 234.841 82.5801 240.202 82.5801C245.651 82.5801 249.272 85.6914 249.272 90.1035C249.272 93.0039 247.866 95.377 242.628 100.123L238.761 103.885V104.025H249.624V108.385H231.413Z" fill="#090909"/>
<rect x="82.374" y="133.385" width="81.126" height="57.5996" rx="4" fill="#ECECEC"/>
<rect x="82.374" y="214.984" width="81.126" height="57.5996" rx="4" fill="#ECECEC"/>
<rect x="82.374" y="296.584" width="81.126" height="57.5996" rx="4" fill="#ECECEC"/>
<rect x="175.5" y="133.385" width="4" height="262" rx="2" fill="#ECECEC"/>
<rect x="191.5" y="133.385" width="81.126" height="57.5996" rx="4" fill="#ECECEC"/>
<rect x="191.5" y="238.984" width="81.126" height="57.5996" rx="4" fill="#ECECEC"/>
</g>
<g filter="url(#filter3_d_1_3595)">
<rect x="32" y="37.3271" width="275" height="391" rx="8" fill="white"/>
<rect x="33.5" y="38.8271" width="272" height="388" rx="6.5" stroke="#F5F5F5" stroke-width="3"/>
<path d="M90.3963 63.835V64.6963H95.3866V63.835H97.1229V68.0049H88.6737V63.835H90.3963ZM87.2245 70.0557V68.6475H98.5721V70.0557H93.7596V70.835H97.1913V73.9795H90.2596V74.6904H97.5194V76.0029H88.5506V72.7764H95.4686V72.1064H88.537V70.835H92.0096V70.0557H87.2245ZM90.3963 66.7061H95.3866V65.9541H90.3963V66.7061ZM109.587 63.6436V66.5967H111.241V68.0186H109.587V70.8486H107.809V63.6436H109.587ZM100.126 70.1787V64.4775H105.717V65.8721H101.862V68.7705C104.172 68.7568 105.437 68.6816 106.825 68.3877L106.975 69.7822C105.437 70.1172 103.974 70.1719 101.165 70.1787H100.126ZM101.219 73.5557C101.212 71.9902 102.88 71.0674 105.485 71.0674C108.042 71.0674 109.675 71.9902 109.682 73.5557C109.675 75.1553 108.042 76.0918 105.485 76.085C102.88 76.0918 101.212 75.1553 101.219 73.5557ZM102.942 73.5557C102.935 74.3076 103.851 74.7041 105.485 74.7041C107.064 74.7041 107.98 74.3076 107.987 73.5557C107.98 72.8242 107.064 72.4414 105.485 72.4482C103.851 72.4414 102.935 72.8242 102.942 73.5557ZM122.406 64.7236V65.8994C122.399 67.458 122.399 69.208 121.9 71.8467L120.15 71.6689C120.628 69.3174 120.649 67.5674 120.656 66.1045H113.327V64.7236H122.406ZM112.152 74.5674V73.1455H116.212V68.8662H117.949V73.1455H123.499V74.5674H112.152ZM135.99 69.3311V70.7529H124.615V69.3311H135.99ZM125.914 73.7881C125.914 72.3252 127.555 71.498 130.275 71.5049C132.976 71.498 134.596 72.3252 134.609 73.7881C134.596 75.2578 132.976 76.0918 130.275 76.085C127.555 76.0918 125.914 75.2578 125.914 73.7881ZM125.996 68.4561V63.9717H134.623V65.3799H127.732V67.0752H134.691V68.4561H125.996ZM127.691 73.7881C127.685 74.4443 128.553 74.7588 130.275 74.7588C131.964 74.7588 132.853 74.4443 132.859 73.7881C132.853 73.1592 131.964 72.8311 130.275 72.8311C128.553 72.8311 127.685 73.1592 127.691 73.7881ZM144.462 64.751V66.1318H137.079V64.751H139.909V63.5752H141.645V64.751H144.462ZM137.68 68.8252C137.68 67.458 138.966 66.5352 140.77 66.5283C142.582 66.5352 143.833 67.458 143.833 68.8252C143.833 70.1924 142.582 71.1152 140.77 71.1221C138.966 71.1152 137.68 70.1924 137.68 68.8252ZM138.569 73.3643V71.9697H146.95V76.085H145.2V73.3643H138.569ZM139.389 68.8252C139.383 69.4609 139.936 69.7891 140.77 69.7822C141.611 69.7891 142.179 69.4609 142.179 68.8252C142.179 68.1826 141.611 67.8408 140.77 67.8408C139.936 67.8408 139.383 68.1826 139.389 68.8252ZM145.2 71.4502V63.6436H146.95V66.8701H148.632V68.292H146.95V71.4502H145.2ZM159.865 64.7236V65.9404C159.858 67.458 159.858 69.1602 159.4 71.6689L157.691 71.5186C158.094 69.2354 158.108 67.5469 158.115 66.1045H150.664V64.7236H159.865ZM149.543 74.5674V73.1455H151.962V69.2354H153.699V73.1455H155.066V69.2354H156.789V73.1455H160.89V74.5674H149.543ZM166.007 74.8271L165.993 73.3369L169.548 70.0693C170.471 69.1875 170.97 68.6406 170.97 67.8545C170.97 66.9727 170.307 66.4258 169.397 66.4326C168.468 66.4258 167.859 67.0137 167.866 67.9639H165.911C165.904 66.0293 167.34 64.792 169.425 64.792C171.544 64.792 172.952 66.002 172.952 67.7178C172.952 68.8457 172.405 69.7686 170.368 71.6143L168.864 73.0771V73.1318H173.089V74.8271H166.007ZM181.888 64.751V66.1318H174.506V64.751H177.336V63.5752H179.072V64.751H181.888ZM175.107 68.8252C175.107 67.458 176.392 66.5352 178.197 66.5283C180.009 66.5352 181.26 67.458 181.26 68.8252C181.26 70.1924 180.009 71.1152 178.197 71.1221C176.392 71.1152 175.107 70.1924 175.107 68.8252ZM175.996 73.3643V71.9697H184.377V76.085H182.627V73.3643H175.996ZM176.816 68.8252C176.809 69.4609 177.363 69.7891 178.197 69.7822C179.038 69.7891 179.605 69.4609 179.605 68.8252C179.605 68.1826 179.038 67.8408 178.197 67.8408C177.363 67.8408 176.809 68.1826 176.816 68.8252ZM182.627 71.4502V63.6436H184.377V66.8701H186.058V68.292H184.377V71.4502H182.627ZM197.428 63.6436V76.085H195.665V63.6436H197.428ZM187.01 72.5576C190.223 71.04 191.638 69.0713 191.918 66.3096H187.68V64.9424H193.696C193.689 68.7158 192.37 71.8535 187.926 73.9521L187.01 72.5576ZM214.371 69.29V70.6982H209.559V71.6211C211.719 71.7783 213.004 72.5576 213.018 73.8428C213.004 75.2852 211.37 76.0918 208.684 76.085C205.956 76.0918 204.322 75.2852 204.322 73.8428C204.322 72.5508 205.614 71.7715 207.822 71.6143V70.6982H203.023V69.29H214.371ZM203.529 67.458C205.833 67.2529 207.104 66.4053 207.419 65.5439H204.062V64.1768H213.346V65.5439H209.962C210.263 66.4121 211.527 67.2529 213.893 67.458L213.277 68.8252C210.926 68.5996 209.347 67.7178 208.684 66.5078C208.027 67.7109 206.462 68.6064 204.103 68.8252L203.529 67.458ZM206.1 73.8428C206.093 74.4443 206.961 74.7725 208.684 74.7725C210.372 74.7725 211.261 74.4443 211.268 73.8428C211.261 73.2139 210.372 72.9131 208.684 72.8994C206.961 72.9131 206.093 73.2139 206.1 73.8428ZM225.358 63.6436V67.1299H227.04V68.5654H225.358V72.5576H223.594V63.6436H225.358ZM215.405 69.96C218.194 69.1875 219.773 67.7451 220.047 65.9951H215.952V64.5732H221.967C221.961 67.9365 219.862 70.2881 216.13 71.3408L215.405 69.96ZM217.264 75.8662V71.6416H219.028V74.4717H225.782V75.8662H217.264ZM238.204 64.7236V65.8994C238.198 67.458 238.198 69.208 237.699 71.8467L235.949 71.6689C236.427 69.3174 236.448 67.5674 236.454 66.1045H229.126V64.7236H238.204ZM227.951 74.5674V73.1455H232.011V68.8662H233.747V73.1455H239.298V74.5674H227.951ZM244.994 66.46C244.987 68.6885 245.938 70.9375 247.934 71.9014L246.881 73.2959C245.548 72.6328 244.646 71.4023 244.133 69.9053C243.586 71.5117 242.629 72.8311 241.221 73.5283L240.141 72.1201C242.253 71.1494 243.244 68.7705 243.244 66.46V64.6006H244.994V66.46ZM248.481 76.085V63.6436H250.231V68.4424H252.063V69.9189H250.231V76.085H248.481Z" fill="#090909"/>
<path d="M110.863 108.003C117.859 108.003 122.254 110.218 122.289 114.05C122.254 117.829 117.859 120.079 110.863 120.062C103.92 120.079 99.4551 117.829 99.4727 114.05C99.4551 110.218 103.92 108.003 110.863 108.003ZM96.5195 105.964V102.343H107.418V96.7529H111.848V102.343H125.559V105.964H96.5195ZM99.7891 93.0264V89.5107H122.113V92.1123C122.131 94.6611 122.131 97.4033 121.199 100.69L116.805 100.269C117.525 97.3682 117.613 95.2061 117.648 93.0264H99.7891ZM103.938 114.05C103.92 115.772 106.451 116.651 110.863 116.651C115.275 116.651 117.824 115.772 117.824 114.05C117.824 112.274 115.275 111.325 110.863 111.343C106.451 111.325 103.92 112.274 103.938 114.05ZM157.106 104.558V108.073H127.856V104.558H140.231V102.589H131.512V88.8428H153.696V92.2881H136.012V94.0811H152.958V97.3154H136.012V99.1436H153.977V102.589H144.731V104.558H157.106ZM131.266 114.788C131.266 111.413 135.309 109.515 142.481 109.55C149.53 109.515 153.591 111.413 153.626 114.788C153.591 118.233 149.53 120.079 142.481 120.062C135.309 120.079 131.266 118.233 131.266 114.788ZM135.766 114.788C135.731 116.159 137.876 116.757 142.481 116.757C146.981 116.757 149.108 116.159 149.126 114.788C149.108 113.452 146.981 112.837 142.481 112.854C137.876 112.837 135.731 113.452 135.766 114.788ZM176.384 90.5654C176.367 94.3447 180.234 98.5107 187.564 99.4248L185.806 103.046C180.216 102.237 176.121 99.6533 174.029 96.1904C171.919 99.6357 167.841 102.237 162.322 103.046L160.529 99.4248C167.806 98.5107 171.656 94.3447 171.673 90.5654V89.0186H176.384V90.5654ZM159.404 109.128V105.472H188.583V109.128H176.138V120.062H171.708V109.128H159.404ZM209.865 90.917V94.4678H190.881V90.917H198.158V87.8936H202.623V90.917H209.865ZM192.428 101.394C192.428 97.8779 195.733 95.5049 200.373 95.4873C205.031 95.5049 208.248 97.8779 208.248 101.394C208.248 104.909 205.031 107.282 200.373 107.3C195.733 107.282 192.428 104.909 192.428 101.394ZM194.713 113.065V109.479H216.264V120.062H211.764V113.065H194.713ZM196.822 101.394C196.805 103.028 198.229 103.872 200.373 103.854C202.535 103.872 203.994 103.028 203.994 101.394C203.994 99.7412 202.535 98.8623 200.373 98.8623C198.229 98.8623 196.805 99.7412 196.822 101.394ZM211.764 108.144V88.0693H216.264V96.3662H220.588V100.022H216.264V108.144H211.764ZM223.413 116.827L223.378 112.995L232.519 104.593C234.892 102.325 236.175 100.919 236.175 98.8975C236.175 96.6299 234.47 95.2236 232.132 95.2412C229.741 95.2236 228.177 96.7354 228.194 99.1787H223.167C223.149 94.2041 226.841 91.0225 232.202 91.0225C237.651 91.0225 241.272 94.1338 241.272 98.5459C241.272 101.446 239.866 103.819 234.628 108.565L230.761 112.327V112.468H241.624V116.827H223.413Z" fill="#090909"/>
<rect x="74.374" y="141.827" width="81.126" height="57.5996" rx="4" fill="#ECECEC"/>
<rect x="74.374" y="223.427" width="81.126" height="57.5996" rx="4" fill="#ECECEC"/>
<rect x="74.374" y="305.026" width="81.126" height="57.5996" rx="4" fill="#ECECEC"/>
<rect x="167.5" y="141.827" width="4" height="262" rx="2" fill="#ECECEC"/>
<rect x="183.5" y="141.827" width="81.126" height="57.5996" rx="4" fill="#ECECEC"/>
<rect x="183.5" y="247.427" width="81.126" height="57.5996" rx="4" fill="#ECECEC"/>
</g>
<g filter="url(#filter4_d_1_3595)">
<rect x="24" y="45.7695" width="275" height="391" rx="8" fill="white"/>
<rect x="25.5" y="47.2695" width="272" height="388" rx="6.5" stroke="#F5F5F5" stroke-width="3"/>
<path d="M82.3963 72.2773V73.1387H87.3866V72.2773H89.1229V76.4473H80.6737V72.2773H82.3963ZM79.2245 78.498V77.0898H90.5721V78.498H85.7596V79.2773H89.1913V82.4219H82.2596V83.1328H89.5194V84.4453H80.5506V81.2188H87.4686V80.5488H80.537V79.2773H84.0096V78.498H79.2245ZM82.3963 75.1484H87.3866V74.3965H82.3963V75.1484ZM101.587 72.0859V75.0391H103.241V76.4609H101.587V79.291H99.8092V72.0859H101.587ZM92.1256 78.6211V72.9199H97.7174V74.3145H93.8619V77.2129C96.1724 77.1992 97.4371 77.124 98.8248 76.8301L98.9752 78.2246C97.4371 78.5596 95.9742 78.6143 93.1646 78.6211H92.1256ZM93.2193 81.998C93.2125 80.4326 94.8805 79.5098 97.4849 79.5098C100.042 79.5098 101.675 80.4326 101.682 81.998C101.675 83.5977 100.042 84.5342 97.4849 84.5273C94.8805 84.5342 93.2125 83.5977 93.2193 81.998ZM94.942 81.998C94.9351 82.75 95.8512 83.1465 97.4849 83.1465C99.0641 83.1465 99.9801 82.75 99.9869 81.998C99.9801 81.2666 99.0641 80.8838 97.4849 80.8906C95.8512 80.8838 94.9351 81.2666 94.942 81.998ZM114.406 73.166V74.3418C114.399 75.9004 114.399 77.6504 113.9 80.2891L112.15 80.1113C112.628 77.7598 112.649 76.0098 112.656 74.5469H105.327V73.166H114.406ZM104.152 83.0098V81.5879H108.212V77.3086H109.949V81.5879H115.499V83.0098H104.152ZM127.99 77.7734V79.1953H116.615V77.7734H127.99ZM117.914 82.2305C117.914 80.7676 119.555 79.9404 122.275 79.9473C124.976 79.9404 126.596 80.7676 126.609 82.2305C126.596 83.7002 124.976 84.5342 122.275 84.5273C119.555 84.5342 117.914 83.7002 117.914 82.2305ZM117.996 76.8984V72.4141H126.623V73.8223H119.732V75.5176H126.691V76.8984H117.996ZM119.691 82.2305C119.685 82.8867 120.553 83.2012 122.275 83.2012C123.964 83.2012 124.853 82.8867 124.859 82.2305C124.853 81.6016 123.964 81.2734 122.275 81.2734C120.553 81.2734 119.685 81.6016 119.691 82.2305ZM136.462 73.1934V74.5742H129.079V73.1934H131.909V72.0176H133.645V73.1934H136.462ZM129.68 77.2676C129.68 75.9004 130.966 74.9775 132.77 74.9707C134.582 74.9775 135.833 75.9004 135.833 77.2676C135.833 78.6348 134.582 79.5576 132.77 79.5645C130.966 79.5576 129.68 78.6348 129.68 77.2676ZM130.569 81.8066V80.4121H138.95V84.5273H137.2V81.8066H130.569ZM131.389 77.2676C131.383 77.9033 131.936 78.2314 132.77 78.2246C133.611 78.2314 134.179 77.9033 134.179 77.2676C134.179 76.625 133.611 76.2832 132.77 76.2832C131.936 76.2832 131.383 76.625 131.389 77.2676ZM137.2 79.8926V72.0859H138.95V75.3125H140.632V76.7344H138.95V79.8926H137.2ZM151.865 73.166V74.3828C151.858 75.9004 151.858 77.6025 151.4 80.1113L149.691 79.9609C150.094 77.6777 150.108 75.9893 150.115 74.5469H142.664V73.166H151.865ZM141.543 83.0098V81.5879H143.962V77.6777H145.699V81.5879H147.066V77.6777H148.789V81.5879H152.89V83.0098H141.543ZM158.007 83.2695L157.993 81.7793L161.548 78.5117C162.471 77.6299 162.97 77.083 162.97 76.2969C162.97 75.415 162.307 74.8682 161.397 74.875C160.468 74.8682 159.859 75.4561 159.866 76.4062H157.911C157.904 74.4717 159.34 73.2344 161.425 73.2344C163.544 73.2344 164.952 74.4443 164.952 76.1602C164.952 77.2881 164.405 78.2109 162.368 80.0566L160.864 81.5195V81.5742H165.089V83.2695H158.007ZM173.888 73.1934V74.5742H166.506V73.1934H169.336V72.0176H171.072V73.1934H173.888ZM167.107 77.2676C167.107 75.9004 168.392 74.9775 170.197 74.9707C172.009 74.9775 173.26 75.9004 173.26 77.2676C173.26 78.6348 172.009 79.5576 170.197 79.5645C168.392 79.5576 167.107 78.6348 167.107 77.2676ZM167.996 81.8066V80.4121H176.377V84.5273H174.627V81.8066H167.996ZM168.816 77.2676C168.809 77.9033 169.363 78.2314 170.197 78.2246C171.038 78.2314 171.605 77.9033 171.605 77.2676C171.605 76.625 171.038 76.2832 170.197 76.2832C169.363 76.2832 168.809 76.625 168.816 77.2676ZM174.627 79.8926V72.0859H176.377V75.3125H178.058V76.7344H176.377V79.8926H174.627ZM189.428 72.0859V84.5273H187.665V72.0859H189.428ZM179.01 81C182.223 79.4824 183.638 77.5137 183.918 74.752H179.68V73.3848H185.696C185.689 77.1582 184.37 80.2959 179.926 82.3945L179.01 81ZM206.371 77.7324V79.1406H201.559V80.0635C203.719 80.2207 205.004 81 205.018 82.2852C205.004 83.7275 203.37 84.5342 200.684 84.5273C197.956 84.5342 196.322 83.7275 196.322 82.2852C196.322 80.9932 197.614 80.2139 199.822 80.0566V79.1406H195.023V77.7324H206.371ZM195.529 75.9004C197.833 75.6953 199.104 74.8477 199.419 73.9863H196.062V72.6191H205.346V73.9863H201.962C202.263 74.8545 203.527 75.6953 205.893 75.9004L205.277 77.2676C202.926 77.042 201.347 76.1602 200.684 74.9502C200.027 76.1533 198.462 77.0488 196.103 77.2676L195.529 75.9004ZM198.1 82.2852C198.093 82.8867 198.961 83.2148 200.684 83.2148C202.372 83.2148 203.261 82.8867 203.268 82.2852C203.261 81.6562 202.372 81.3555 200.684 81.3418C198.961 81.3555 198.093 81.6562 198.1 82.2852ZM217.358 72.0859V75.5723H219.04V77.0078H217.358V81H215.594V72.0859H217.358ZM207.405 78.4023C210.194 77.6299 211.773 76.1875 212.047 74.4375H207.952V73.0156H213.967C213.961 76.3789 211.862 78.7305 208.13 79.7832L207.405 78.4023ZM209.264 84.3086V80.084H211.028V82.9141H217.782V84.3086H209.264ZM230.204 73.166V74.3418C230.198 75.9004 230.198 77.6504 229.699 80.2891L227.949 80.1113C228.427 77.7598 228.448 76.0098 228.454 74.5469H221.126V73.166H230.204ZM219.951 83.0098V81.5879H224.011V77.3086H225.747V81.5879H231.298V83.0098H219.951ZM236.994 74.9023C236.987 77.1309 237.938 79.3799 239.934 80.3438L238.881 81.7383C237.548 81.0752 236.646 79.8447 236.133 78.3477C235.586 79.9541 234.629 81.2734 233.221 81.9707L232.141 80.5625C234.253 79.5918 235.244 77.2129 235.244 74.9023V73.043H236.994V74.9023ZM240.481 84.5273V72.0859H242.231V76.8848H244.063V78.3613H242.231V84.5273H240.481Z" fill="#090909"/>
<path d="M102.863 116.445C109.859 116.445 114.254 118.66 114.289 122.492C114.254 126.271 109.859 128.521 102.863 128.504C95.9199 128.521 91.4551 126.271 91.4727 122.492C91.4551 118.66 95.9199 116.445 102.863 116.445ZM88.5195 114.406V110.785H99.418V105.195H103.848V110.785H117.559V114.406H88.5195ZM91.7891 101.469V97.9531H114.113V100.555C114.131 103.104 114.131 105.846 113.199 109.133L108.805 108.711C109.525 105.811 109.613 103.648 109.648 101.469H91.7891ZM95.9375 122.492C95.9199 124.215 98.4512 125.094 102.863 125.094C107.275 125.094 109.824 124.215 109.824 122.492C109.824 120.717 107.275 119.768 102.863 119.785C98.4512 119.768 95.9199 120.717 95.9375 122.492ZM149.106 113V116.516H119.856V113H132.231V111.031H123.512V97.2852H145.696V100.73H128.012V102.523H144.958V105.758H128.012V107.586H145.977V111.031H136.731V113H149.106ZM123.266 123.23C123.266 119.855 127.309 117.957 134.481 117.992C141.53 117.957 145.591 119.855 145.626 123.23C145.591 126.676 141.53 128.521 134.481 128.504C127.309 128.521 123.266 126.676 123.266 123.23ZM127.766 123.23C127.731 124.602 129.876 125.199 134.481 125.199C138.981 125.199 141.108 124.602 141.126 123.23C141.108 121.895 138.981 121.279 134.481 121.297C129.876 121.279 127.731 121.895 127.766 123.23ZM168.384 99.0078C168.367 102.787 172.234 106.953 179.564 107.867L177.806 111.488C172.216 110.68 168.121 108.096 166.029 104.633C163.919 108.078 159.841 110.68 154.322 111.488L152.529 107.867C159.806 106.953 163.656 102.787 163.673 99.0078V97.4609H168.384V99.0078ZM151.404 117.57V113.914H180.583V117.57H168.138V128.504H163.708V117.57H151.404ZM201.865 99.3594V102.91H182.881V99.3594H190.158V96.3359H194.623V99.3594H201.865ZM184.428 109.836C184.428 106.32 187.733 103.947 192.373 103.93C197.031 103.947 200.248 106.32 200.248 109.836C200.248 113.352 197.031 115.725 192.373 115.742C187.733 115.725 184.428 113.352 184.428 109.836ZM186.713 121.508V117.922H208.264V128.504H203.764V121.508H186.713ZM188.822 109.836C188.805 111.471 190.229 112.314 192.373 112.297C194.535 112.314 195.994 111.471 195.994 109.836C195.994 108.184 194.535 107.305 192.373 107.305C190.229 107.305 188.805 108.184 188.822 109.836ZM203.764 116.586V96.5117H208.264V104.809H212.588V108.465H208.264V116.586H203.764ZM215.413 125.27L215.378 121.438L224.519 113.035C226.892 110.768 228.175 109.361 228.175 107.34C228.175 105.072 226.47 103.666 224.132 103.684C221.741 103.666 220.177 105.178 220.194 107.621H215.167C215.149 102.646 218.841 99.4648 224.202 99.4648C229.651 99.4648 233.272 102.576 233.272 106.988C233.272 109.889 231.866 112.262 226.628 117.008L222.761 120.77V120.91H233.624V125.27H215.413Z" fill="#090909"/>
<rect x="66.374" y="150.27" width="81.126" height="57.5996" rx="4" fill="#ECECEC"/>
<rect x="66.374" y="231.869" width="81.126" height="57.5996" rx="4" fill="#ECECEC"/>
<rect x="66.374" y="313.469" width="81.126" height="57.5996" rx="4" fill="#ECECEC"/>
<rect x="159.5" y="150.27" width="4" height="262" rx="2" fill="#ECECEC"/>
<rect x="175.5" y="150.27" width="81.126" height="57.5996" rx="4" fill="#ECECEC"/>
<rect x="175.5" y="255.869" width="81.126" height="57.5996" rx="4" fill="#ECECEC"/>
</g>
<g filter="url(#filter5_d_1_3595)">
<rect x="16" y="54.2119" width="275" height="391" rx="8" fill="white"/>
<rect x="17.5" y="55.7119" width="272" height="388" rx="6.5" stroke="#F5F5F5" stroke-width="3"/>
<path d="M125.269 80.5283V86.8311H123.533V80.5283H125.269ZM114.81 85.4912C116.888 84.8691 117.818 83.3037 117.818 81.7588V80.8018H119.637V81.7588C119.623 83.2695 120.525 84.7119 122.562 85.2998L121.715 86.6396C120.286 86.2295 119.302 85.3613 118.734 84.2539C118.174 85.4639 117.155 86.4141 115.672 86.8584L114.81 85.4912ZM116.929 88.7178V87.3643H125.283V90.7412H118.666V91.5068H125.625V92.8877H116.957V89.4424H123.547V88.7178H116.929ZM137.815 80.542V89.6201H136.079V85.1631H134.042V83.7549H136.079V80.542H137.815ZM127.26 86.8174C129.318 86.1748 130.248 84.5547 130.254 82.9619V82.7705H127.752V81.376H134.506V82.7705H132.032V82.9756C132.025 84.418 132.914 85.9561 134.889 86.5986L134.028 87.9795C132.654 87.5283 131.704 86.626 131.164 85.5117C130.61 86.749 129.619 87.7539 128.149 88.2393L127.26 86.8174ZM129.557 92.751V88.8271H131.307V91.3564H138.116V92.751H129.557ZM154.771 90.085V91.5205H143.383V90.085H148.182V87.542H144.586V81.4443H153.5V87.542H149.918V90.085H154.771ZM146.309 86.1748H151.777V82.8389H146.309V86.1748ZM159.88 81.3623C161.855 81.3555 163.318 82.627 163.325 84.4111C163.318 86.2021 161.855 87.4668 159.88 87.4736C157.918 87.4668 156.414 86.2021 156.421 84.4111C156.414 82.627 157.918 81.3555 159.88 81.3623ZM155.901 89.0322C158.123 89.0391 161.199 89.0117 163.858 88.6357L163.995 89.8936C161.233 90.4336 158.28 90.4541 156.106 90.4541L155.901 89.0322ZM158.157 84.4111C158.15 85.3955 158.895 85.9629 159.88 85.9561C160.871 85.9629 161.623 85.3955 161.63 84.4111C161.623 83.4404 160.871 82.8662 159.88 82.8662C158.895 82.8662 158.15 83.4404 158.157 84.4111ZM164.569 92.9971V80.5283H166.305V92.9971H164.569ZM178.564 81.6084V82.7842C178.557 84.3428 178.557 86.0928 178.058 88.7314L176.308 88.5537C176.787 86.2021 176.807 84.4521 176.814 82.9893H169.486V81.6084H178.564ZM168.31 91.4521V90.0303H172.371V85.751H174.107V90.0303H179.658V91.4521H168.31ZM185.354 83.3447C185.347 85.5732 186.297 87.8223 188.293 88.7861L187.24 90.1807C185.907 89.5176 185.005 88.2871 184.492 86.79C183.946 88.3965 182.988 89.7158 181.58 90.4131L180.5 89.0049C182.613 88.0342 183.604 85.6553 183.604 83.3447V81.4854H185.354V83.3447ZM188.84 92.9697V80.5283H190.59V85.3271H192.422V86.8037H190.59V92.9697H188.84Z" fill="#090909"/>
<path d="M94.8633 124.888C101.859 124.888 106.254 127.103 106.289 130.935C106.254 134.714 101.859 136.964 94.8633 136.946C87.9199 136.964 83.4551 134.714 83.4727 130.935C83.4551 127.103 87.9199 124.888 94.8633 124.888ZM80.5195 122.849V119.228H91.418V113.638H95.8477V119.228H109.559V122.849H80.5195ZM83.7891 109.911V106.396H106.113V108.997C106.131 111.546 106.131 114.288 105.199 117.575L100.805 117.153C101.525 114.253 101.613 112.091 101.648 109.911H83.7891ZM87.9375 130.935C87.9199 132.657 90.4512 133.536 94.8633 133.536C99.2754 133.536 101.824 132.657 101.824 130.935C101.824 129.159 99.2754 128.21 94.8633 128.228C90.4512 128.21 87.9199 129.159 87.9375 130.935ZM141.106 121.442V124.958H111.856V121.442H124.231V119.474H115.512V105.728H137.696V109.173H120.012V110.966H136.958V114.2H120.012V116.028H137.977V119.474H128.731V121.442H141.106ZM115.266 131.673C115.266 128.298 119.309 126.399 126.481 126.435C133.53 126.399 137.591 128.298 137.626 131.673C137.591 135.118 133.53 136.964 126.481 136.946C119.309 136.964 115.266 135.118 115.266 131.673ZM119.766 131.673C119.731 133.044 121.876 133.642 126.481 133.642C130.981 133.642 133.108 133.044 133.126 131.673C133.108 130.337 130.981 129.722 126.481 129.739C121.876 129.722 119.731 130.337 119.766 131.673ZM160.384 107.45C160.367 111.229 164.234 115.396 171.564 116.31L169.806 119.931C164.216 119.122 160.121 116.538 158.029 113.075C155.919 116.521 151.841 119.122 146.322 119.931L144.529 116.31C151.806 115.396 155.656 111.229 155.673 107.45V105.903H160.384V107.45ZM143.404 126.013V122.356H172.583V126.013H160.138V136.946H155.708V126.013H143.404ZM193.865 107.802V111.353H174.881V107.802H182.158V104.778H186.623V107.802H193.865ZM176.428 118.278C176.428 114.763 179.733 112.39 184.373 112.372C189.031 112.39 192.248 114.763 192.248 118.278C192.248 121.794 189.031 124.167 184.373 124.185C179.733 124.167 176.428 121.794 176.428 118.278ZM178.713 129.95V126.364H200.264V136.946H195.764V129.95H178.713ZM180.822 118.278C180.805 119.913 182.229 120.757 184.373 120.739C186.535 120.757 187.994 119.913 187.994 118.278C187.994 116.626 186.535 115.747 184.373 115.747C182.229 115.747 180.805 116.626 180.822 118.278ZM195.764 125.028V104.954H200.264V113.251H204.588V116.907H200.264V125.028H195.764ZM207.413 133.712L207.378 129.88L216.519 121.478C218.892 119.21 220.175 117.804 220.175 115.782C220.175 113.515 218.47 112.108 216.132 112.126C213.741 112.108 212.177 113.62 212.194 116.063H207.167C207.149 111.089 210.841 107.907 216.202 107.907C221.651 107.907 225.272 111.019 225.272 115.431C225.272 118.331 223.866 120.704 218.628 125.45L214.761 129.212V129.353H225.624V133.712H207.413Z" fill="#090909"/>
<rect x="58.374" y="158.712" width="81.126" height="57.5996" rx="4" fill="#ECECEC"/>
<rect x="58.374" y="240.312" width="81.126" height="57.5996" rx="4" fill="#ECECEC"/>
<rect x="58.374" y="321.911" width="81.126" height="57.5996" rx="4" fill="#ECECEC"/>
<rect x="151.5" y="158.712" width="4" height="262" rx="2" fill="#ECECEC"/>
<rect x="167.5" y="158.712" width="81.126" height="57.5996" rx="4" fill="#ECECEC"/>
<rect x="167.5" y="264.312" width="81.126" height="57.5996" rx="4" fill="#ECECEC"/>
</g>
<defs>
<filter id="filter0_d_1_3595" x="40" y="0" width="307" height="423" filterUnits="userSpaceOnUse" color-interpolation-filters="sRGB">
<feFlood flood-opacity="0" result="BackgroundImageFix"/>
<feColorMatrix in="SourceAlpha" type="matrix" values="0 0 0 0 0 0 0 0 0 0 0 0 0 0 0 0 0 0 127 0" result="hardAlpha"/>
<feOffset dy="4"/>
<feGaussianBlur stdDeviation="8"/>
<feColorMatrix type="matrix" values="0 0 0 0 0 0 0 0 0 0 0 0 0 0 0 0 0 0 0.15 0"/>
<feBlend mode="normal" in2="BackgroundImageFix" result="effect1_dropShadow_1_3595"/>
<feBlend mode="normal" in="SourceGraphic" in2="effect1_dropShadow_1_3595" result="shape"/>
</filter>
<filter id="filter1_d_1_3595" x="32" y="8.44238" width="307" height="423" filterUnits="userSpaceOnUse" color-interpolation-filters="sRGB">
<feFlood flood-opacity="0" result="BackgroundImageFix"/>
<feColorMatrix in="SourceAlpha" type="matrix" values="0 0 0 0 0 0 0 0 0 0 0 0 0 0 0 0 0 0 127 0" result="hardAlpha"/>
<feOffset dy="4"/>
<feGaussianBlur stdDeviation="8"/>
<feColorMatrix type="matrix" values="0 0 0 0 0 0 0 0 0 0 0 0 0 0 0 0 0 0 0.15 0"/>
<feBlend mode="normal" in2="BackgroundImageFix" result="effect1_dropShadow_1_3595"/>
<feBlend mode="normal" in="SourceGraphic" in2="effect1_dropShadow_1_3595" result="shape"/>
</filter>
<filter id="filter2_d_1_3595" x="24" y="16.8848" width="307" height="423" filterUnits="userSpaceOnUse" color-interpolation-filters="sRGB">
<feFlood flood-opacity="0" result="BackgroundImageFix"/>
<feColorMatrix in="SourceAlpha" type="matrix" values="0 0 0 0 0 0 0 0 0 0 0 0 0 0 0 0 0 0 127 0" result="hardAlpha"/>
<feOffset dy="4"/>
<feGaussianBlur stdDeviation="8"/>
<feColorMatrix type="matrix" values="0 0 0 0 0 0 0 0 0 0 0 0 0 0 0 0 0 0 0.15 0"/>
<feBlend mode="normal" in2="BackgroundImageFix" result="effect1_dropShadow_1_3595"/>
<feBlend mode="normal" in="SourceGraphic" in2="effect1_dropShadow_1_3595" result="shape"/>
</filter>
<filter id="filter3_d_1_3595" x="16" y="25.3271" width="307" height="423" filterUnits="userSpaceOnUse" color-interpolation-filters="sRGB">
<feFlood flood-opacity="0" result="BackgroundImageFix"/>
<feColorMatrix in="SourceAlpha" type="matrix" values="0 0 0 0 0 0 0 0 0 0 0 0 0 0 0 0 0 0 127 0" result="hardAlpha"/>
<feOffset dy="4"/>
<feGaussianBlur stdDeviation="8"/>
<feColorMatrix type="matrix" values="0 0 0 0 0 0 0 0 0 0 0 0 0 0 0 0 0 0 0.15 0"/>
<feBlend mode="normal" in2="BackgroundImageFix" result="effect1_dropShadow_1_3595"/>
<feBlend mode="normal" in="SourceGraphic" in2="effect1_dropShadow_1_3595" result="shape"/>
</filter>
<filter id="filter4_d_1_3595" x="8" y="33.7695" width="307" height="423" filterUnits="userSpaceOnUse" color-interpolation-filters="sRGB">
<feFlood flood-opacity="0" result="BackgroundImageFix"/>
<feColorMatrix in="SourceAlpha" type="matrix" values="0 0 0 0 0 0 0 0 0 0 0 0 0 0 0 0 0 0 127 0" result="hardAlpha"/>
<feOffset dy="4"/>
<feGaussianBlur stdDeviation="8"/>
<feColorMatrix type="matrix" values="0 0 0 0 0 0 0 0 0 0 0 0 0 0 0 0 0 0 0.15 0"/>
<feBlend mode="normal" in2="BackgroundImageFix" result="effect1_dropShadow_1_3595"/>
<feBlend mode="normal" in="SourceGraphic" in2="effect1_dropShadow_1_3595" result="shape"/>
</filter>
<filter id="filter5_d_1_3595" x="0" y="42.2119" width="307" height="423" filterUnits="userSpaceOnUse" color-interpolation-filters="sRGB">
<feFlood flood-opacity="0" result="BackgroundImageFix"/>
<feColorMatrix in="SourceAlpha" type="matrix" values="0 0 0 0 0 0 0 0 0 0 0 0 0 0 0 0 0 0 127 0" result="hardAlpha"/>
<feOffset dy="4"/>
<feGaussianBlur stdDeviation="8"/>
<feColorMatrix type="matrix" values="0 0 0 0 0 0 0 0 0 0 0 0 0 0 0 0 0 0 0.15 0"/>
<feBlend mode="normal" in2="BackgroundImageFix" result="effect1_dropShadow_1_3595"/>
<feBlend mode="normal" in="SourceGraphic" in2="effect1_dropShadow_1_3595" result="shape"/>
</filter>
</defs>
</svg>
