<svg width="132" height="18" viewBox="0 0 132 18" fill="none" xmlns="http://www.w3.org/2000/svg">
<g clip-path="url(#clip0_297_197)">
<path d="M9.709 16.4527V9.88258L8.66992 10.2357V16.2654H0V1.07976H3.66464V5.5463H5.00528V1.07976H8.66992V6.71865L9.709 6.36554V0.707275H13.3736V16.4527H9.709ZM5.00528 8.74684H3.66464V13.0648H5.00528V8.74684ZM17.8698 16.4527H14.1866V0.707275H17.8698V16.4527Z" fill="#364F8E"/>
<path d="M30.601 8.67256C30.601 10.1797 30.4306 11.4274 30.129 12.4135C29.7892 13.419 29.3729 14.2189 28.8638 14.8142C28.3349 15.4095 27.7307 15.8197 27.0697 16.0802C26.3901 16.3224 25.7094 16.4527 25.0298 16.4527C24.3119 16.4527 23.6323 16.3224 22.9713 16.0802C22.2917 15.8197 21.706 15.4106 21.1958 14.8142C20.6669 14.2189 20.2321 13.4179 19.9305 12.4135C19.6093 11.4274 19.4585 10.1797 19.4585 8.67256C19.4585 7.16541 19.6093 5.9177 19.9305 4.9133C20.2332 3.92719 20.6669 3.12625 21.1958 2.53093C21.706 1.9356 22.2917 1.52652 22.9713 1.26492C23.6323 1.0227 24.3119 0.892439 25.0298 0.892439C25.7094 0.892439 26.3901 1.0227 27.0697 1.26492C27.7307 1.52544 28.3349 1.93453 28.8638 2.53093C29.374 3.12625 29.7892 3.92719 30.129 4.9133C30.4317 5.91878 30.601 7.18371 30.601 8.67256ZM23.3482 8.67256C23.3482 9.64036 23.3865 10.4036 23.4804 10.9989C23.5558 11.5943 23.688 12.0593 23.8585 12.3952C24.0093 12.73 24.1797 12.9539 24.3873 13.0648C24.5763 13.1951 24.8025 13.2511 25.0298 13.2511C25.2374 13.2511 25.4449 13.1951 25.6536 13.0648C25.8427 12.9529 26.0317 12.73 26.1825 12.3952C26.3332 12.0787 26.4469 11.6136 26.5605 10.9989C26.6359 10.4036 26.6927 9.62206 26.6927 8.65425C26.6927 7.68645 26.6359 6.92319 26.5605 6.32786C26.4469 5.73254 26.3332 5.26748 26.1825 4.9316C26.0317 4.6151 25.8427 4.39225 25.6536 4.26199C25.446 4.15003 25.2384 4.09405 25.0298 4.09405C24.8036 4.09405 24.5763 4.15003 24.3873 4.26199C24.1797 4.39225 24.0093 4.61617 23.8585 4.95098C23.688 5.28578 23.5558 5.75084 23.4804 6.34724C23.3854 6.94256 23.3482 7.72413 23.3482 8.67363V8.67256ZM35.7396 16.4527H31.8291V0.707275H35.7396V16.4527Z" fill="#364F8E"/>
<path d="M48.2996 1.15399V3.57297C48.2996 4.01973 48.2614 4.42881 48.2057 4.80129C48.1303 5.21037 48.0167 5.60116 47.8845 5.97364L54.533 9.08159L52.6067 11.929L46.0336 8.76509C44.4657 10.2916 42.1996 11.408 39.2331 12.1153L37.627 9.11927C39.7423 8.71019 41.3856 8.02121 42.5951 7.09108C43.7664 6.17926 44.3706 5.00691 44.3706 3.55466V1.15399H48.2996ZM37.8914 13.251H54.2304V16.4526H37.8914V13.251Z" fill="#364F8E"/>
<path d="M71.5434 1.15405V2.82913C71.5434 3.08965 71.5248 3.33188 71.5052 3.55472C71.4669 3.79694 71.4101 4.03916 71.3544 4.262L77.7768 7.03515L75.8505 9.88259L69.5221 7.07176C68.7103 7.77904 67.7083 8.39266 66.5185 8.87711C65.31 9.39815 63.9683 9.78893 62.4758 10.0678L60.8696 7.07176C61.8705 6.86722 62.7959 6.625 63.6274 6.34617C64.4589 6.08565 65.1571 5.76915 65.7624 5.41605C66.348 5.08124 66.8015 4.70876 67.1413 4.262C67.4439 3.83354 67.6133 3.35018 67.6133 2.81083V1.15405H71.5423H71.5434ZM61.1362 10.9624H77.4752V14.164H71.2604V17.0297H67.35V14.164H61.1351V10.9624H61.1362ZM86.2959 1.266H89.7716V4.09514H78.9099V1.266H82.3855V0H86.2959V1.266ZM84.35 4.61618C85.2186 4.61618 85.9747 4.69046 86.6172 4.83902C87.2411 4.98759 87.7502 5.1932 88.1665 5.45373C88.5631 5.73255 88.8658 6.04905 89.0548 6.40323C89.2253 6.77571 89.3192 7.18479 89.3192 7.61325C89.3192 8.04171 89.2253 8.4691 89.0548 8.82328C88.8658 9.19576 88.5631 9.51226 88.1665 9.77278C87.7513 10.0516 87.2411 10.2572 86.6172 10.3875C85.9747 10.536 85.2197 10.6114 84.35 10.6114C83.4803 10.6114 82.6881 10.5371 82.0828 10.3875C81.4404 10.2572 80.9301 10.0527 80.5335 9.77278C80.1183 9.51226 79.8342 9.19576 79.6648 8.82328C79.4758 8.4691 79.3819 8.06002 79.3819 7.61325C79.3819 7.16649 79.4758 6.77571 79.6648 6.40323C79.8353 6.04905 80.1183 5.73362 80.5335 5.45373C80.9301 5.1932 81.4404 4.98866 82.0828 4.83902C82.687 4.69046 83.4431 4.61618 84.35 4.61618ZM90.7724 16.8252V14.7033H80.327V11.5211H94.6829V16.8252H90.7724ZM84.35 6.77463C83.972 6.77463 83.6704 6.86829 83.4814 7.01685C83.2552 7.18479 83.1601 7.38933 83.1601 7.61218C83.1601 7.8544 83.2541 8.05894 83.4814 8.2075C83.6704 8.39374 83.973 8.46802 84.35 8.46802C84.7269 8.46802 85.011 8.39374 85.2372 8.2258C85.4262 8.07724 85.5399 7.87162 85.5399 7.6111C85.5399 7.36888 85.4262 7.16434 85.2186 6.9964C84.9925 6.84784 84.7084 6.77248 84.35 6.77248V6.77463ZM94.6829 7.01685V10.8698H90.7724V0.707283H94.6829V3.81524H96.3262V7.01685H94.6829ZM104.429 1.266H107.905V4.09514H97.0429V1.266H100.519V0H104.429V1.266ZM102.483 4.61618C103.352 4.61618 104.108 4.69046 104.75 4.83902C105.374 4.98759 105.883 5.1932 106.3 5.45373C106.696 5.73255 106.999 6.04905 107.188 6.40323C107.358 6.77571 107.452 7.18479 107.452 7.61325C107.452 8.04171 107.358 8.4691 107.188 8.82328C106.999 9.19576 106.696 9.51226 106.3 9.77278C105.884 10.0516 105.374 10.2572 104.75 10.3875C104.108 10.536 103.353 10.6114 102.483 10.6114C101.613 10.6114 100.821 10.5371 100.216 10.3875C99.5734 10.2572 99.0632 10.0527 98.6666 9.77278C98.2514 9.51226 97.9673 9.19576 97.7979 8.82328C97.6089 8.4691 97.515 8.06002 97.515 7.61325C97.515 7.16649 97.6089 6.77571 97.7979 6.40323C97.9684 6.04905 98.2514 5.73362 98.6666 5.45373C99.0632 5.1932 99.5734 4.98866 100.216 4.83902C100.82 4.69046 101.576 4.61618 102.483 4.61618ZM108.905 16.8252V14.7033H98.4601V11.5211H112.816V16.8252H108.905ZM102.483 6.77463C102.105 6.77463 101.803 6.86829 101.614 7.01685C101.388 7.18479 101.293 7.38933 101.293 7.61218C101.293 7.8544 101.387 8.05894 101.614 8.2075C101.803 8.39374 102.106 8.46802 102.483 8.46802C102.86 8.46802 103.144 8.39374 103.37 8.2258C103.559 8.07724 103.673 7.87162 103.673 7.6111C103.673 7.36888 103.559 7.16434 103.352 6.9964C103.126 6.84784 102.841 6.77248 102.483 6.77248V6.77463ZM112.816 7.01685V10.8698H108.905V0.707283H112.816V3.81524H114.459V7.01685H112.816ZM119.88 12.9539V13.6429H131.704V16.8252H115.969V12.265H118.935V11.52H115.081V8.69087H126.868V11.52H122.845V12.9529H119.88V12.9539ZM115.365 4.39226C115.365 3.75926 115.497 3.20161 115.8 2.71717C116.064 2.27041 116.461 1.87963 116.953 1.58143C117.444 1.28323 118.01 1.07869 118.691 0.930126C119.352 0.799865 120.07 0.725584 120.845 0.725584C121.412 0.725584 121.978 0.763263 122.506 0.837544C123.017 0.931203 123.489 1.06146 123.942 1.21003C124.377 1.37796 124.774 1.58251 125.113 1.82473C125.435 2.08525 125.699 2.40175 125.925 2.73655L127.607 2.36407V0.707283H131.517V12.73H127.607V5.54631L125.982 5.91879C125.585 6.66375 124.924 7.20309 124.018 7.5379C123.092 7.8727 122.034 8.04064 120.845 8.04064C120.07 8.04064 119.352 7.98466 118.691 7.8361C118.011 7.70584 117.444 7.48299 116.953 7.18479C116.461 6.88659 116.064 6.51519 115.8 6.04905C115.497 5.60229 115.365 5.04357 115.365 4.39226ZM120.843 5.39775C121.335 5.39775 121.75 5.32346 122.09 5.15552C122.43 5.00696 122.6 4.76474 122.6 4.39226C122.6 4.01978 122.43 3.77756 122.09 3.6107C121.75 3.46214 121.334 3.36848 120.843 3.36848C120.353 3.36848 119.956 3.46106 119.635 3.6107C119.295 3.77864 119.125 4.03916 119.125 4.39226C119.125 4.76474 119.295 5.02526 119.635 5.17383C119.956 5.32239 120.353 5.39667 120.843 5.39667V5.39775Z" fill="url(#paint0_linear_297_197)"/>
</g>
<defs>
<linearGradient id="paint0_linear_297_197" x1="60.8718" y1="8.51431" x2="131.704" y2="8.51431" gradientUnits="userSpaceOnUse">
<stop stop-color="#364F8E"/>
<stop offset="1" stop-color="#5784F1"/>
</linearGradient>
<clipPath id="clip0_297_197">
<rect width="131.881" height="17.0297" fill="white"/>
</clipPath>
</defs>
</svg>
